<?xml version="1.0" encoding="UTF-8"?><svg id="logo" xmlns="http://www.w3.org/2000/svg" viewBox="0 0 60.2 80.7"><defs><style>.cls-1{fill:none;stroke:#000;stroke-linecap:square;stroke-miterlimit:10;stroke-width:.7px;}.cls-2{stroke-width:0px;}</style></defs><ellipse class="cls-1" cx="30.1" cy="40.35" rx="29.75" ry="40"/><path class="cls-2" d="M47.27,33.39c.2,1.25.29,2.54.29,3.86,0,.26,0,.61-.02,1.05-.23.05-.4.07-.51.07-.1,0-.24-.02-.42-.05-.68-1.9-1.8-3.37-3.34-4.39-1.55-1.03-3.46-1.54-5.74-1.54-1.21,0-2.22.14-3.05.42-1.46.5-2.75,1.2-3.86,2.09-1.11.89-2.04,1.95-2.81,3.17-.77,1.23-1.37,2.72-1.82,4.47-.45,1.75-.67,3.54-.67,5.36,0,3.48.53,6.36,1.59,8.63,1.06,2.27,2.51,3.89,4.35,4.86,1.84.97,3.69,1.45,5.57,1.45l1.15-.02c1.3-.16,2.19-.32,2.66-.46,1.19-.34,2.17-.74,2.94-1.21.77-.46,1.53-1.12,2.27-1.96.74-.85,1.37-1.83,1.89-2.95l.29-.1c.08,0,.2.05.37.15-.02.39-.03.64-.05.76-.68,2.75-1.18,4.63-1.49,5.64-.26.07-.59.16-.98.29-1.9.65-4.45.98-7.64.98-2.57,0-4.5-.17-5.77-.52-1.28-.35-2.67-.9-4.17-1.64-1.51-.74-2.83-1.72-3.97-2.94-1.14-1.22-2.06-2.76-2.76-4.63-.7-1.86-1.05-3.89-1.05-6.09,0-2.08.28-3.9.83-5.46.55-1.55,1.41-3.13,2.56-4.72,1.16-1.59,2.52-2.92,4.09-3.98,1.57-1.06,3.32-1.81,5.24-2.25,1.35-.29,3.26-.44,5.74-.44,1.81,0,3.51.24,5.1.72,1.59.48,2.66.95,3.2,1.4Z"/><path class="cls-2" d="M39.77,46.41c-.29-.15-.81-.33-1.56-.54-.21-.06-.58-.16-1.11-.29-.53-.13-.83-.23-.92-.29-.28-.23-.58-.7-.9-1.4-.33-.71-1.01-2.61-2.05-5.7l-1.22-3.37c-1.11.67-2.11,1.68-2.83,2.53.58,1.59.93,2.62,1.06,3.05.22.73.48,1.51.77,2.32.42,1.22.63,1.98.63,2.27,0,.15-.05.37-.15.66-.34.15-.85.24-1.51.27l-2.56.17c-.16.02-.34.07-.54.17-.08.21-.12.43-.12.66.15.08.31.13.49.15h.54c.15,0,.32,0,.53.03.2.02.4.03.6.03l2.95-.04,2.44.05c2.1.05,3.56.07,4.39.07.21,0,.58,0,1.1-.02.05-.16.07-.28.07-.37,0-.1-.03-.24-.1-.42Z"/><path class="cls-2" d="M27.64,33.15c.03.09.06.17.1.26,1.17-.76,2.29-1.33,3.14-1.71l-3.33-9.01c-.67-1.68-1.15-2.94-1.44-3.78-.54-1.59-1.15-3.08-1.85-4.47l-.85-.02-.72.05c-.49,1.53-.9,2.75-1.25,3.66-1.37,3.61-2.23,5.92-2.59,6.93l-2.3,6.42c-.37,1.07-.77,2.1-1.17,3.08-.13.31-.45,1.19-.95,2.64-1.06,3.04-2.01,5.4-2.86,7.06-.41.77-.9,1.3-1.46,1.61-.23.11-.97.23-2.22.34-.28.02-.47.02-.58.02h-.56c-.18,0-.38.07-.61.2-.06.2-.1.35-.1.46v.15c.62.05,1.12.07,1.51.07.24,0,.64-.02,1.2-.05.85-.03,1.44-.05,1.78-.05s.91.02,1.71.05c1.72.08,3.24.12,4.54.12.39,0,.95,0,1.68-.02.05-.16.07-.28.07-.37,0-.11-.09-.24-.27-.39l-3.32-.29c-.57-.08-1.03-.17-1.37-.27-.15-.34-.22-.59-.22-.73,0-.26.46-1.67,1.37-4.22l2.15-6.71c.07-.21.2-.56.42-1.05.67-.08,1.28-.12,1.83-.12l1.54.02,5.22-.05c.5,0,1.09.06,1.76.17ZM17.78,31.79l-.15-.1c.11-.26.2-.52.26-.77.06-.25.2-.69.43-1.32.23-.63.45-1.26.66-1.89.46-1.42,1.21-3.39,2.25-5.93.62-1.48.98-2.32,1.08-2.51l.24.44,2.22,5.64c.11.29.7,1.85,1.76,4.69.21.55.4,1.15.56,1.78-.96.08-2.08.12-3.34.12-2.23,0-4.21-.05-5.96-.15Z"/></svg>