<svg xmlns="http://www.w3.org/2000/svg" viewBox="0 0 101 101" id="carrybag"><path d="M76.7 34.3c-.2-1.2-1.2-2-2.4-2H60.8v-5.5c0-5.7-4.6-10.3-10.3-10.3-5.7 0-10.3 4.6-10.3 10.3v5.5H26.7c-1.2 0-2.2.9-2.4 2l-7.9 47.5c-.1.7.1 1.4.5 1.9.5.5 1.1.8 1.8.8h63.4c1.3 0 2.4-1.1 2.4-2.4 0-.3 0-.5-.1-.8l-7.7-47zM45 26.7c0-3 2.5-5.5 5.5-5.5s5.5 2.5 5.5 5.5v5.5H45v-5.5zM21.6 79.8l7.1-42.7h11.4v13.4c0 1.3 1.1 2.4 2.4 2.4 1.3 0 2.4-1.1 2.4-2.4V37.1h11v13.4c0 1.3 1.1 2.4 2.4 2.4 1.3 0 2.4-1.1 2.4-2.4V37.1h11.4l7.1 42.7H21.6z"/></svg>